<?xml version="1.0" encoding="UTF-8" standalone="no"?>
<!-- Created with Inkscape (http://www.inkscape.org/) -->

<svg
   xmlns:dc="http://purl.org/dc/elements/1.1/"
   xmlns:cc="http://creativecommons.org/ns#"
   xmlns:rdf="http://www.w3.org/1999/02/22-rdf-syntax-ns#"
   xmlns:svg="http://www.w3.org/2000/svg"
   xmlns="http://www.w3.org/2000/svg"
   xmlns:sodipodi="http://sodipodi.sourceforge.net/DTD/sodipodi-0.dtd"
   xmlns:inkscape="http://www.inkscape.org/namespaces/inkscape"
   width="210mm"
   height="297mm"
   viewBox="0 0 744.09448819 1052.3622047"
   id="svg2"
   version="1.1"
   inkscape:version="0.91 r13725"
   sodipodi:docname="drawing.svg">
  <defs
     id="defs4">
    <inkscape:perspective
       sodipodi:type="inkscape:persp3d"
       inkscape:vp_x="0 : 526.1811 : 1"
       inkscape:vp_y="0 : 1000 : 0"
       inkscape:vp_z="744.09449 : 526.1811 : 1"
       inkscape:persp3d-origin="372.04724 : 350.7874 : 1"
       id="perspective3338" />
  </defs>
  <sodipodi:namedview
     id="base"
     pagecolor="#ffffff"
     bordercolor="#666666"
     borderopacity="1.0"
     inkscape:pageopacity="0.0"
     inkscape:pageshadow="2"
     inkscape:zoom="0.35"
     inkscape:cx="375"
     inkscape:cy="520"
     inkscape:document-units="px"
     inkscape:current-layer="layer1"
     showgrid="false"
     inkscape:window-width="1366"
     inkscape:window-height="715"
     inkscape:window-x="1920"
     inkscape:window-y="643"
     inkscape:window-maximized="1" />
  <metadata
     id="metadata7">
    <rdf:RDF>
      <cc:Work
         rdf:about="">
        <dc:format>image/svg+xml</dc:format>
        <dc:type
           rdf:resource="http://purl.org/dc/dcmitype/StillImage" />
        <dc:title></dc:title>
      </cc:Work>
    </rdf:RDF>
  </metadata>
  <g
     inkscape:label="Layer 1"
     inkscape:groupmode="layer"
     id="layer1">
    <path
       style="fill:#ff0000;fill-rule:evenodd;stroke:#000000;stroke-width:1px;stroke-linecap:butt;stroke-linejoin:miter;stroke-opacity:1"
       d="m 268.57143,312.3622 c -3.80953,-1.90476 -7.47403,-4.13246 -11.42857,-5.71428 -1.76853,-0.70741 -4.01062,0.85183 -5.71429,0 -1.20468,-0.60234 -1.65246,-2.25481 -2.85714,-2.85714 -0.85184,-0.42592 -1.90476,0 -2.85714,0 -0.95239,-0.95238 -1.65247,-2.25481 -2.85715,-2.85715 -0.85183,-0.42591 -2.0053,0.42592 -2.85714,0 -1.20468,-0.60234 -1.73648,-2.11003 -2.85714,-2.85714 -1.77193,-1.18128 -3.94236,-1.67586 -5.71429,-2.85714 -1.12066,-0.74711 -1.53643,-2.593 -2.85714,-2.85715 -7.7142,-1.54284 -18.61842,1.21964 -25.71429,2.85715 -7.65241,1.76594 -15.3509,3.40467 -22.85714,5.71428 -4.90193,1.50829 -9.27912,4.60171 -14.28571,5.71429 -3.71881,0.8264 -7.61905,0 -11.42858,0 -0.95238,0 -2.1837,-0.67344 -2.85714,0 -1.34687,1.34687 0.85184,4.01061 0,5.71428 -0.60234,1.20468 -2.2548,1.65247 -2.85714,2.85715 -0.42592,0.85183 0,1.90476 0,2.85714 0,0.95238 0,1.90476 0,2.85714 0,4.76191 0,9.52381 0,14.28572 0,0.95238 0.42592,2.00531 0,2.85714 -0.60234,1.20468 -2.25481,1.65247 -2.85714,2.85714 -0.89789,1.79578 0.89788,9.6328 0,11.42857 -0.60234,1.20468 -2.25481,1.65247 -2.85715,2.85715 -0.42591,0.85183 0,1.90476 0,2.85714 0,1.90476 0,3.80952 0,5.71429 0,6.66666 0,13.33333 0,20 0,3.80952 0,7.61904 0,11.42857 0,0.95238 0.67344,2.18371 0,2.85714 -0.67343,0.67344 -2.43122,-0.85183 -2.85714,0 -0.85184,1.70367 0,3.80952 0,5.71429 0,5.71428 0,11.42857 0,17.14285 0,7.61905 0.95238,-0.95238 -2.85714,2.85715 -0.67344,0.67343 0,1.90476 0,2.85714 0,0.95238 0,1.90476 0,2.85714 0,5.71429 0,11.42857 0,17.14286 0,0.95238 0,1.90476 0,2.85714 0,0.95238 -0.42592,2.00531 0,2.85714 0.60234,1.20468 1.90476,1.90477 2.85714,2.85715 0.95238,0.95238 1.65247,2.2548 2.85714,2.85714 0.85184,0.42592 2.00531,-0.42592 2.85715,0 1.20467,0.60234 1.90476,1.90476 2.85714,2.85714 0.95238,0.95238 2.2548,1.65247 2.85714,2.85715 0.42592,0.85183 -0.67343,2.1837 0,2.85714 0.67344,0.67343 2.18371,-0.67344 2.85714,0 0.67344,0.67343 -0.79242,2.32886 0,2.85714 2.50588,1.67059 5.80325,1.67078 8.57143,2.85714 3.9148,1.67778 7.44058,4.21879 11.42857,5.71429 3.67675,1.37878 8.0614,0.83684 11.42858,2.85714 1.8261,1.09567 1.67586,3.94236 2.85714,5.71429 3.92516,5.88774 5.62017,-0.18822 8.57143,5.71428 0.42591,0.85184 -0.42592,2.00531 0,2.85715 0.60234,1.20467 2.2548,1.65246 2.85714,2.85714 0.42592,0.85184 -0.67344,2.18371 0,2.85714 1.56403,1.56403 14.34436,6.89233 17.14286,8.57143 23.30634,13.98381 -3.65745,-2.0288 14.28571,11.42857 1.70367,1.27776 3.80953,1.90477 5.71429,2.85715 1.90476,0.95238 3.69398,2.1837 5.71428,2.85714 8.50524,2.83508 -5.8623,-6.76535 8.57143,2.85714 1.12067,0.74711 1.90476,1.90476 2.85714,2.85714 0.95239,0.95239 2.25481,1.65247 2.85715,2.85715 0.42591,0.85183 -0.30117,1.95363 0,2.85714 0.67343,2.02031 2.1837,3.69398 2.85714,5.71429 0.30117,0.9035 -0.42592,2.0053 0,2.85714 0.68855,1.37709 11.35016,11.36977 11.42857,11.42857 1.70367,1.27775 3.94236,1.67586 5.71429,2.85714 3.2967,2.19781 5.27472,6.37363 8.57143,8.57143 1.77192,1.18129 3.94236,1.67586 5.71428,2.85714 2.24133,1.49422 3.30493,4.50961 5.71429,5.71429 0.85183,0.42592 2.1837,-0.67343 2.85714,0 0.67344,0.67344 -0.42592,2.00531 0,2.85714 0.3793,0.75861 7.81283,8.19213 8.57143,8.57143 0.85183,0.42592 2.18371,-0.67343 2.85714,0 0.67344,0.67344 -0.67343,2.18371 0,2.85714 0.67344,0.67344 2.00531,-0.42591 2.85714,0 1.20468,0.60234 1.73648,2.11004 2.85715,2.85715 1.77192,1.18128 3.94236,1.67586 5.71428,2.85714 2.24133,1.49422 3.30493,4.50961 5.71429,5.71429 0.85183,0.42591 2.18371,-0.67344 2.85714,0 0.67344,0.67343 -0.67343,2.1837 0,2.85714 0.67344,0.67343 2.18371,-0.67344 2.85714,0 5.91153,5.91153 -9.0336,-0.23109 2.85715,5.71428 0.85183,0.42592 2.0053,-0.42591 2.85714,0 1.20468,0.60234 1.65247,2.25481 2.85714,2.85715 0.85184,0.42592 2.18371,-0.67344 2.85715,0 0.67343,0.67343 -0.67344,2.18371 0,2.85714 1.34687,1.34687 4.36741,-1.34687 5.71428,0 0.67344,0.67344 -0.67343,2.18371 0,2.85714 0.67344,0.67344 2.00531,-0.42591 2.85714,0 1.20468,0.60234 1.65247,2.25481 2.85715,2.85715 1.70367,0.85183 4.36741,-1.34687 5.71428,0 0.67344,0.67343 -0.67343,2.1837 0,2.85714 0.67344,0.67343 1.90476,0 2.85715,0 1.90476,0 3.80952,0 5.71428,0 8.57143,0 17.14286,0 25.71429,0 2.85714,0 5.75316,0.46971 8.57143,0 2.97071,-0.49512 5.61822,-2.2665 8.57142,-2.85714 1.86778,-0.37356 3.8664,0.46197 5.71429,0 2.066,-0.5165 3.64828,-2.34065 5.71429,-2.85715 1.84789,-0.46197 3.86639,0.46198 5.71428,0 13.26444,-6.63221 -1.64455,-0.24251 11.42857,-2.85714 32.82052,-6.5641 -15.67765,0.84982 17.14286,-5.71429 1.59064,-0.31812 11.15034,0.27824 11.42857,0 0.67344,-0.67343 -0.67343,-2.1837 0,-2.85714 0.67344,-0.67343 2.00531,0.42592 2.85714,0 2.40936,-1.20468 3.15878,-4.86245 5.71429,-5.71428 1.80702,-0.60234 3.80952,0 5.71429,0 1.90476,-0.95238 3.69398,-2.18371 5.71428,-2.85715 0.90351,-0.30117 2.18371,0.67344 2.85714,0 0.67344,-0.67343 -0.67343,-2.1837 0,-2.85714 1.34687,-1.34687 4.36742,1.34687 5.71429,0 0.67344,-0.67343 -0.42592,-2.00531 0,-2.85714 0.60234,-1.20468 1.90476,-1.90476 2.85714,-2.85715 0.95238,-0.95238 1.65247,-2.2548 2.85715,-2.85714 2.69374,-1.34687 5.77514,-1.73863 8.57142,-2.85714 7.22439,-2.88975 6.45979,-4.09947 14.28572,-8.57143 3.698,-2.11314 7.61905,-3.80952 11.42857,-5.71429 6.19515,-3.09757 12.99331,-7.17009 20,-8.57142 21.67755,-4.33551 -5.96793,4.41253 8.57143,-2.85715 1.70367,-0.85183 4.36741,1.34687 5.71428,0 0.67344,-0.67343 -0.67343,-2.1837 0,-2.85714 0.67344,-0.67343 2.00531,0.42592 2.85715,0 0.7586,-0.3793 8.19212,-7.81283 8.57143,-8.57143 3.31965,-6.63932 -10.06285,0.89485 5.71428,-8.57143 19.89665,-6.63221 -1.40203,1.88707 14.28572,-8.57143 3.54385,-2.36256 7.73057,-3.60114 11.42857,-5.71428 2.98142,-1.70367 5.62692,-3.94758 8.57143,-5.71429 4.07948,-2.44769 11.94344,-3.88689 14.28571,-8.57143 0.42592,-0.85183 -0.42592,-2.0053 0,-2.85714 0.60234,-1.20468 2.11003,-1.73648 2.85714,-2.85714 1.18129,-1.77193 1.57939,-4.01062 2.85715,-5.71429 1.61624,-2.15499 4.5096,-3.30493 5.71428,-5.71428 0.85184,-1.70367 -0.85183,-4.01062 0,-5.71429 1.20468,-2.40935 3.80953,-3.80952 5.71429,-5.71428 0.95238,-0.95238 2.43122,-1.57939 2.85714,-2.85715 0.60234,-1.80701 -0.60234,-3.90727 0,-5.71428 0.42592,-1.27776 2.2548,-1.65247 2.85714,-2.85715 0.42592,-0.85183 -0.30117,-1.95363 0,-2.85714 0.67344,-2.0203 2.18371,-3.69398 2.85715,-5.71428 0.60233,-1.80702 0,-3.80953 0,-5.71429 0,-3.80952 0,-7.61905 0,-11.42857 0,-2.85714 -0.56034,-5.76977 0,-8.57143 0.59064,-2.95321 2.1267,-5.64966 2.85714,-8.57143 0.92765,-3.7106 -0.90938,-10.6482 0,-14.28571 0.5165,-2.06601 2.34064,-3.64828 2.85714,-5.71429 0.73992,-2.95969 0,-8.15239 0,-11.42857 0,-12.38095 0,-24.7619 0,-37.14286 0,-4.7619 -0.93388,-9.61628 0,-14.28571 0.41765,-2.08823 2.4395,-3.62605 2.85714,-5.71429 0,-21.7961 -1.27775,2.25387 2.85715,-14.28571 0.46197,-1.84789 -0.60234,-3.90727 0,-5.71429 0.42591,-1.27775 2.43122,-1.57939 2.85714,-2.85714 0.90351,-2.71052 0,-5.71429 0,-8.57143 0,-4.7619 0,-9.52381 0,-14.28571 0,-2.27988 0.57137,-12.57159 0,-14.28572 -6.89849,-20.69547 0.82372,4.5046 -5.71429,-8.57143 -0.42591,-0.85183 0.42592,-2.0053 0,-2.85714 -0.60233,-1.20468 -1.90476,-1.90476 -2.85714,-2.85714 -0.95238,-0.95238 -1.73648,-2.11003 -2.85714,-2.85714 0.32537,-5.41265 -6.66667,-1.90477 -8.57143,-2.85715 -1.20468,-0.60234 -1.90476,-1.90476 -2.85714,-2.85714 -0.95238,-0.95238 -2.11004,-1.73648 -2.85715,-2.85714 -1.18128,-1.77193 -1.90476,-3.80953 -2.85714,-5.71429 -2.85714,-5.71428 -5.71428,-11.42857 -8.57143,-17.14286 -0.95238,-1.90476 -1.67586,-3.94236 -2.85714,-5.71428 -0.74711,-1.12066 -1.90476,-1.90476 -2.85714,-2.85714 -1.90476,-1.90477 -3.5593,-4.09805 -5.71429,-5.71429 -1.70367,-1.27775 -3.94236,-1.67586 -5.71428,-2.85714 -1.12067,-0.74711 -1.57939,-2.43123 -2.85715,-2.85715 -1.80701,-0.60233 -3.90727,0.60234 -5.71428,0 -2.55551,-0.85183 -3.47296,-4.22006 -5.71429,-5.71428 -1.77192,-1.18128 -3.94236,-1.67586 -5.71428,-2.85714 -1.12067,-0.74711 -1.57939,-2.43123 -2.85715,-2.85715 -1.80701,-0.60234 -3.86639,0.46198 -5.71428,0 -8.28638,-2.07159 -3.34361,-2.22907 -8.57143,-5.71428 -1.77193,-1.18129 -3.94236,-1.67586 -5.71429,-2.85715 -1.12066,-0.7471 -1.65246,-2.2548 -2.85714,-2.85714 -0.85184,-0.42592 -2.00531,0.42592 -2.85714,0 -1.20468,-0.60234 -1.65247,-2.2548 -2.85715,-2.85714 -0.85183,-0.42592 -1.90476,0 -2.85714,0 -1.90476,-0.95238 -3.94236,-1.67586 -5.71428,-2.85714 -8.17575,-5.4505 4.37603,-0.5353 -8.57143,-5.71429 -2.79629,-1.11851 -5.98893,-1.30764 -8.57143,-2.85714 -2.30986,-1.38592 -3.30493,-4.50961 -5.71429,-5.71429 -1.70367,-0.85183 -3.90727,0.60234 -5.71428,0 -1.27776,-0.42592 -1.65247,-2.2548 -2.85715,-2.85714 -0.85183,-0.42592 -2.0053,0.42592 -2.85714,0 -1.20468,-0.60234 -1.57939,-2.43123 -2.85714,-2.85714 -1.80702,-0.60234 -3.8664,0.46197 -5.71429,0 -2.066,-0.5165 -3.64828,-2.34065 -5.71428,-2.85715 -3.69578,-0.92394 -7.73279,0.92395 -11.42857,0 -5.67397,-1.41849 -11.4689,-7.15294 -17.14286,-8.57143 -1.84789,-0.46197 -3.80953,0 -5.71429,0 -1.90476,0 -3.80952,0 -5.71428,0 -6.66667,0 -13.33334,0 -20,0 -1.90476,0 -3.80953,0 -5.71429,0 -1.90476,0 -3.90727,0.60234 -5.71428,0 -1.27776,-0.42591 -1.65247,-2.2548 -2.85715,-2.85714 -1.70367,-0.85183 -4.36741,1.34687 -5.71428,0 -0.67344,-0.67343 0.67343,-2.18371 0,-2.85714 -0.67344,-0.67344 -1.90476,0 -2.85715,0 -6.66666,0 -13.33333,0 -20,0 -10.47619,0 -20.95238,0 -31.42857,0 -1.49406,0 -10.67731,-0.37563 -11.42857,0 -1.20468,0.60234 -1.65246,2.2548 -2.85714,2.85714 -1.67747,0.83874 -14.23838,-0.72612 -17.14286,0 -31.07392,10.35798 7.52923,-1.50584 -14.28571,2.85714 -5.73755,-0.65565 -9.31012,4.47039 -14.28572,5.71429 -1.84789,0.46197 -3.86639,-0.46197 -5.71428,0 -2.06601,0.5165 -3.69398,2.18371 -5.71429,2.85714 -0.90351,0.30117 -2.00531,-0.42591 -2.85714,0 -1.20468,0.60234 -1.65247,2.25481 -2.85714,2.85715 -1.70368,0.85183 -3.90727,-0.60234 -5.71429,0 -2.02031,0.67343 -3.69398,2.1837 -5.71429,2.85714 -1.80701,0.60234 -3.90727,-0.60234 -5.71428,0 -2.02031,0.67343 -3.69398,2.18371 -5.71429,2.85714 -0.90351,0.30117 -1.90476,0 -2.85714,0 -1.90476,0 -3.80952,0 -5.71429,0 -7.61904,0 -15.23809,0 -22.85714,0 -2.85714,0 -5.91864,-1.06111 -8.57143,0 -2.50107,1.00043 -3.55929,4.09804 -5.71428,5.71429 -7.41545,9.28306 -3.20487,0.17386 -8.57143,2.85714 -1.20468,0.60234 -1.65247,2.2548 -2.85714,2.85714 -1.70368,0.85184 -4.36742,-1.34687 -5.71429,0 -0.67344,0.67344 0.67344,2.18371 0,2.85715 -7.61905,0 0.95238,-0.95238 -2.85714,2.85714 -0.67344,0.67343 -2.00531,-0.42592 -2.85715,0 -2.53239,1.2662 -5.97052,6.83749 -8.57142,8.57143 -0.53221,0.3548 -11.24549,5.5312 -11.42858,5.71428 -1.50584,1.50585 -1.35129,4.20844 -2.85714,5.71429 -2.84959,2.84959 -14.29326,5.72184 -17.14286,8.57143 -1.50584,1.50584 -1.35129,4.20844 -2.85714,5.71428 -1.50585,1.50585 -3.94236,1.67586 -5.71428,2.85715 -1.1738,0.78253 -7.7889,7.39763 -8.57143,8.57142 -1.18129,1.77193 -1.3513,4.20844 -2.85715,5.71429 -1.50584,1.50585 -3.80952,1.90476 -5.71428,2.85714 -0.95238,1.90477 -1.57939,4.01062 -2.85714,5.71429 -1.61625,2.15499 -3.80953,3.80952 -5.71429,5.71428 -4.7619,4.76191 -9.52381,9.52381 -14.28571,14.28572 -1.90477,1.90476 -4.09805,3.55929 -5.71429,5.71428 -2.55551,3.40735 -3.52296,7.77636 -5.71429,11.42858 -1.7667,2.94451 -3.94758,5.62692 -5.71428,8.57142 -0.29688,0.4948 -5.61178,11.32607 -5.71429,11.42858 -1.50584,1.50584 -4.208436,1.35129 -5.714283,2.85714 -1.505846,1.50585 -1.904762,3.80952 -2.857143,5.71428 -0.952381,1.90477 -2.066233,3.73702 -2.857143,5.71429 -11.50431,28.76078 2.230854,-6.06627 -2.857142,14.28571 -1.033003,4.13201 -4.681284,7.29657 -5.714286,11.42858 -0.561869,2.24747 0,14.17164 0,17.14285 0,4.76191 0,9.52381 0,14.28572 0,1.90476 0.373554,3.84651 0,5.71428 -0.590642,2.95321 -2.362024,5.60072 -2.857143,8.57143 -0.469711,2.81827 0.560332,5.76977 0,8.57143 -0.417647,2.08823 -2.439496,3.62605 -2.857143,5.71429 -1.314037,6.57018 1.12058,16.13366 0,22.85714 -0.495119,2.97071 -1.904762,5.71428 -2.857143,8.57143 0,3.80952 0.538748,7.65733 0,11.42857 -0.425917,2.98142 -2.362023,5.60071 -2.857143,8.57143 -0.469711,2.81827 0,5.71428 0,8.57143 0,2.85714 0,5.71428 0,8.57142 0,2.85715 -0.903507,5.86091 0,8.57143 1.085882,3.25765 4.178618,5.5001 5.714286,8.57143 1.34687,2.69374 1.30764,5.98892 2.857143,8.57143 1.385918,2.30986 3.809524,3.80952 5.714286,5.71429 0.952381,0.95238 2.431225,1.57939 2.857143,2.85714 0.602338,1.80701 0,3.80952 0,5.71428 0,0.95239 -0.425918,2.00531 0,2.85715 0.602338,1.20467 2.254804,1.65246 2.857142,2.85714 0.425918,0.85184 -0.301169,1.95364 0,2.85714 3.452658,10.35798 1.355612,2.03342 5.714286,8.57143 4.509173,6.76376 1.488234,7.20252 8.571433,14.28572 2.4281,2.4281 5.93346,3.51598 8.57142,5.71428 6.20817,5.17347 11.00714,11.88367 17.14286,17.14286 3.61551,3.09901 7.81307,5.47242 11.42857,8.57143 3.06786,2.62959 5.46735,5.98469 8.57143,8.57143 2.63796,2.1983 5.93347,3.51598 8.57143,5.71428 3.10408,2.58674 5.46735,5.98469 8.57143,8.57143 2.63796,2.1983 5.62692,3.94758 8.57143,5.71429 1.8261,1.09566 4.20844,1.35129 5.71428,2.85714 0.67344,0.67343 -0.67343,2.18371 0,2.85714 0.67344,0.67344 2.18371,-0.67343 2.85715,0 1.50584,1.50585 1.19421,4.38394 2.85714,5.71429 0.16367,0.13093 22.37306,11.13812 22.85714,11.42857 11.07567,6.6454 16.9607,12.78883 28.57143,17.14286 3.67675,1.37878 7.78266,1.39877 11.42857,2.85714 1.25054,0.50021 1.65247,2.2548 2.85714,2.85714 5.38748,2.69374 11.50299,3.59934 17.14286,5.71429 4.80218,1.80081 9.27912,4.60171 14.28572,5.71428 3.7188,0.82641 7.65733,-0.53874 11.42857,0 2.98142,0.42592 5.61822,2.2665 8.57143,2.85715 1.59063,0.31812 11.15033,-0.27824 11.42857,0 0.67343,0.67343 -0.67344,2.1837 0,2.85714 0.0919,0.0919 7.87849,0 8.57143,0 12.38095,0 24.7619,0 37.14285,0 29.87543,0 -1.10039,-1.70367 17.14286,2.85714 1.84789,0.46197 4.01061,-0.85183 5.71429,0 0.85183,0.42592 -0.67344,2.18371 0,2.85714 0.67343,0.67344 1.90476,0 2.85714,0 1.28673,0 7.7019,0.43477 8.57143,0 1.20467,-0.60233 1.65246,-2.2548 2.85714,-2.85714 1.70367,-0.85183 4.01061,0.85184 5.71429,0 1.20467,-0.60234 1.57939,-2.43122 2.85714,-2.85714 1.58005,-0.52668 14.26556,0 17.14286,0 2.33914,0 12.43452,0.61706 14.28571,0 2.02031,-0.67344 3.62605,-2.4395 5.71429,-2.85714 2.80165,-0.56034 5.75316,0.46971 8.57142,0 2.97072,-0.49512 5.71429,-1.90477 8.57143,-2.85715 9.24477,-3.08159 18.88128,-7.18712 28.57143,-8.57143 2.82843,-0.40406 5.76977,0.56034 8.57143,0 4.17647,-0.83529 7.29656,-4.68128 11.42857,-5.71428 1.84789,-0.46197 3.80953,0 5.71429,0 0.95238,0 2.0053,0.42592 2.85714,0 1.20468,-0.60234 1.65247,-2.25481 2.85714,-2.85714 0.85184,-0.42592 2.00531,0.42591 2.85715,0 13.49196,-6.74599 -17.43889,1.50258 11.42857,-5.71429 4.71121,-1.1778 9.5745,-1.67934 14.28571,-2.85714 6.72642,-1.68161 13.22047,-4.26153 20,-5.71429 6.58487,-1.41104 13.42602,-1.39626 20,-2.85714 19.86135,-4.41363 -12.50346,-1.88726 14.28572,-5.71429 3.77123,-0.53874 8.02123,1.70367 11.42857,0 1.70367,-0.85183 -1.05657,-4.12942 0,-5.71428 0.38121,-0.57182 10.24954,-4.77106 11.42857,-5.71429 3.15519,-2.52415 5.71428,-5.71428 8.57143,-8.57143 3.80952,-3.80952 7.61904,-7.61904 11.42857,-11.42857 0.95238,-0.95238 2.11003,-1.73648 2.85714,-2.85714 4.3227,-6.48405 1.39159,-4.94452 5.71429,-11.42857 0.74711,-1.12067 2.11003,-1.73648 2.85714,-2.85715 1.18128,-1.77192 1.57939,-4.01061 2.85714,-5.71428 1.61625,-2.15499 3.80953,-3.80952 5.71429,-5.71429 1.90476,-1.90476 3.55929,-4.09804 5.71428,-5.71428 1.70368,-1.27776 4.01062,-1.57939 5.71429,-2.85715 2.15499,-1.61624 3.55929,-4.09804 5.71429,-5.71428 1.70367,-1.27775 4.20843,-1.3513 5.71428,-2.85714 1.50585,-1.50585 1.90476,-3.80953 2.85714,-5.71429 0.95239,-1.90476 1.90477,-3.80952 2.85715,-5.71429 1.90476,-3.80952 3.80952,-7.61904 5.71428,-11.42857 0.95238,-1.90476 2.18371,-3.69398 2.85715,-5.71428 0.30117,-0.90351 -0.30117,-1.95364 0,-2.85715 0.67343,-2.0203 2.34064,-3.64828 2.85714,-5.71428 1.24017,-4.9607 -1.24018,-12.18216 0,-17.14286 0.5165,-2.066 2.34064,-3.64828 2.85714,-5.71428 0.46197,-1.84789 -0.46197,-3.8664 0,-5.71429 0.5165,-2.066 2.34064,-3.64828 2.85714,-5.71429 0.46198,-1.84789 0,-3.80952 0,-5.71428 0,-0.95238 -0.42591,-2.00531 0,-2.85714 0.60234,-1.20468 2.43123,-1.57939 2.85715,-2.85715 1.20467,-3.61403 -0.92395,-7.73279 0,-11.42857 0.5165,-2.066 2.34064,-3.64828 2.85714,-5.71428 0.56187,-2.24748 0,-14.17165 0,-17.14286 0,-1.90476 -0.60234,-3.90727 0,-5.71429 0.42592,-1.27775 2.43123,-1.57939 2.85714,-2.85714 0.85715,-2.57143 -0.85714,-6 0,-8.57143 1.34687,-4.04061 4.68129,-7.29656 5.71429,-11.42857 2.47407,-9.89627 -3.61793,-1.71597 2.85714,-11.42857 3.48521,-5.22782 3.64269,-0.28505 5.71429,-8.57143 0.46197,-1.84789 0,-3.80952 0,-5.71429 0.95238,-1.90476 2.1837,-3.69398 2.85714,-5.71428 0.60234,-1.80702 -0.85184,-4.01062 0,-5.71429 0.60234,-1.20467 2.43123,-1.57939 2.85714,-2.85714 1.20468,-3.61403 -0.74711,-7.69303 0,-11.42857 7.83055,-23.49164 -1.00389,6.02339 2.85715,-17.14286 4.18008,-25.0805 1.051,4.36742 5.71428,-14.28571 0.46197,-1.84789 -0.46197,-3.8664 0,-5.71429 0.5165,-2.066 2.34064,-3.64828 2.85714,-5.71428 0.64754,-2.59014 0,-10.96666 0,-14.28572 0,-2.3001 0.59777,-9.63527 0,-11.42857 -2.72108,-8.16326 -2.04081,-4.21769 -8.57142,-8.57143 -1.12067,-0.74711 -1.65247,-2.2548 -2.85715,-2.85714 -1.70367,-0.85184 -4.12943,1.05657 -5.71428,0 -2.24133,-1.49422 -3.5593,-4.09804 -5.71429,-5.71429 -3.40734,-2.5555 -8.02123,-3.15878 -11.42857,-5.71428 -2.15499,-1.61625 -3.30493,-4.50961 -5.71429,-5.71429 -1.70367,-0.85183 -4.01061,0.85184 -5.71428,0 -1.70367,-0.85183 1.34687,-4.36741 0,-5.71428 -0.67344,-0.67344 -2.18371,0.67343 -2.85714,0 -1.34687,-1.34687 0.85183,-4.01062 0,-5.71429 -0.60234,-1.20468 -2.25481,-1.65247 -2.85715,-2.85714 -0.43476,-0.86953 0,-7.28469 0,-8.57143 0,-7.61905 0,-15.2381 0,-22.85714 0,-1.04925 0.11498,-11.3136 0,-11.42858 -0.67343,-0.67343 -2.1837,0.67344 -2.85714,0 -0.67344,-0.67343 0,-1.90476 0,-2.85714 -0.95238,-0.95238 -1.73648,-2.11003 -2.85714,-2.85714 -3.54385,-2.36257 -8.02123,-3.15878 -11.42857,-5.71429 -2.155,-1.61624 -3.40443,-4.32836 -5.71429,-5.71428 -2.58251,-1.54951 -5.77514,-1.73863 -8.57143,-2.85715 -3.95455,-1.58181 -7.77636,-3.52295 -11.42857,-5.71428 -17.58806,-10.55283 -0.82834,-0.66267 -14.28571,-11.42857 -2.6814,-2.14512 -5.93347,-3.51599 -8.57143,-5.71429 -3.10409,-2.58673 -5.10664,-6.49255 -8.57143,-8.57143 -1.63332,-0.97999 -3.90727,0.60234 -5.71429,0 -1.27775,-0.42591 -1.65246,-2.2548 -2.85714,-2.85714 -1.70367,-0.85183 -4.01061,0.85184 -5.71429,0 -2.40935,-1.20468 -3.10097,-5.06096 -5.71428,-5.71429 -2.77184,-0.69295 -5.75316,0.46972 -8.57143,0 -2.97072,-0.49511 -5.71429,-1.90476 -8.57143,-2.85714 -3.80952,0 -7.65733,0.53875 -11.42857,0 -26.32456,-3.76065 8.71093,-2.85714 -17.14286,-2.85714 -7.61904,0 -15.23809,0 -22.85714,0 -2.85714,0 -5.71429,0 -8.57143,0 -1.90476,0 -3.90727,0.60234 -5.71428,0 -1.27776,-0.42592 -1.65247,-2.25481 -2.85715,-2.85714 -1.8935,-0.94675 -9.03392,0.79821 -11.42857,0 -2.0203,-0.67344 -3.64828,-2.34065 -5.71428,-2.85715 -4.61973,-1.15493 -9.5886,0.78286 -14.28572,0 -2.97071,-0.49512 -5.60071,-2.36202 -8.57143,-2.85714 -2.81827,-0.46971 -5.71428,0 -8.57143,0 -5.71428,0 -11.42857,0 -17.14285,0 -2.85715,0 -5.71429,0 -8.57143,0 -1.90476,0 -3.8664,-0.46197 -5.71429,0 -2.066,0.5165 -3.64828,2.34064 -5.71428,2.85714 -0.0955,0.0239 -8.55626,-0.0152 -8.57143,0 -0.67344,0.67344 0.67343,2.18371 0,2.85715 -0.67344,0.67343 -2.00531,-0.42592 -2.85714,0 -1.20468,0.60233 -1.65247,2.2548 -2.85715,2.85714 -0.85183,0.42592 -2.0053,-0.42592 -2.85714,0 -1.20468,0.60234 -1.65247,2.2548 -2.85714,2.85714 -0.85184,0.42592 -1.95364,-0.30117 -2.85715,0 -2.0203,0.67344 -3.61367,2.50704 -5.71428,2.85714 -3.75769,0.62629 -7.61905,0 -11.42857,0 -8.57143,0 -17.14286,0 -25.71429,0 -20,0 -40,0 -60,0 -8.57143,0 -17.14286,0 -25.71428,0 -0.66135,0 -16.12235,-0.51025 -17.14286,0 -10.26449,5.13225 10.22202,2.10586 -11.42857,5.71429 -2.81827,0.46971 -5.86091,-0.90351 -8.57143,0 -3.25765,1.08588 -5.38317,4.43898 -8.57143,5.71429 -1.76853,0.70741 -3.8664,-0.46198 -5.71429,0 -2.066,0.5165 -3.64828,2.34064 -5.71428,2.85714 -2.83226,0.70806 -11.75574,-0.84333 -14.28572,0 -2.0203,0.67343 -3.80952,1.90476 -5.71428,2.85714 -7.31429,3.65714 -4.11429,2.05714 -11.42857,5.71429 -1.90476,0.95238 -3.69398,2.18371 -5.71429,2.85714 -1.80701,0.60234 -4.01061,-0.85183 -5.71428,0 -2.40936,1.20468 -3.30494,4.50961 -5.71429,5.71429 -0.85184,0.42591 -2.00531,-0.42592 -2.85714,0 -1.20468,0.60233 -1.90476,1.90476 -2.85715,2.85714 -13.7972,13.7972 2.98844,-3.73555 -11.42857,14.28571 -1.68276,2.10346 -4.03152,3.61083 -5.71428,5.71429 -4.29023,5.36278 -7.13835,11.78007 -11.42857,17.14286 -1.68277,2.10345 -3.80953,3.80952 -5.71429,5.71428 -0.95238,0.95238 -2.43123,1.57939 -2.85714,2.85714 -0.60234,1.80702 1.05657,4.12943 0,5.71429 -1.18129,1.77193 -4.01062,1.57939 -5.71429,2.85714 -2.15499,1.61625 -3.47296,4.22007 -5.71428,5.71429 -0.79243,0.52828 -2.00531,-0.42592 -2.85715,0 -1.20467,0.60234 -1.65246,2.2548 -2.85714,2.85714 -0.85184,0.42592 -2.00531,-0.42592 -2.85714,0 -1.20468,0.60234 -1.65247,2.25481 -2.85715,2.85714 -0.85183,0.42592 -2.0053,-0.42591 -2.85714,0 -1.20468,0.60234 -1.90476,1.90477 -2.85714,2.85715 -1.90476,1.90476 -3.80953,3.80952 -5.71429,5.71428 -4.761902,4.76191 -9.974485,9.11225 -14.285711,14.28572 -2.198303,2.63796 -3.515984,5.93346 -5.714286,8.57143 -0.729971,0.87596 -14.786893,15.57221 -17.142857,17.14285 -1.771925,1.18129 -3.942361,1.67586 -5.714286,2.85715 -4.20421,2.8028 -7.224362,8.62576 -11.428571,11.42857 -1.771925,1.18128 -3.942361,1.67586 -5.714286,2.85714 -1.120664,0.74711 -1.904762,1.90476 -2.857143,2.85714 -0.952381,0.95238 -2.431225,1.57939 -2.857143,2.85715 -0.903508,2.71052 0.903508,5.8609 0,8.57142 -0.673435,2.02031 -2.439496,3.62606 -2.857143,5.71429 -0.933886,4.66943 0,9.52381 0,14.28571 0,1.90477 0.461973,3.8664 0,5.71429 -0.516501,2.066 -2.183708,3.69398 -2.857143,5.71429 -0.301169,0.9035 0,1.90476 0,2.85714 0,1.90476 0,3.80952 0,5.71428 0,1.90477 0.461973,3.8664 0,5.71429 -0.516501,2.066 -2.340641,3.64828 -2.857142,5.71429 -0.48339,1.93355 0,18.16141 0,20 0,1.90476 0.461972,3.86639 0,5.71428 -0.516502,2.06601 -2.340642,3.64828 -2.857143,5.71429 -0.461973,1.84789 0,3.80952 0,5.71428 0,2.85715 0,5.71429 0,8.57143 0,2.85714 0,5.71429 0,8.57143 0,1.90476 -0.373555,3.84651 0,5.71429 3.459481,17.2974 2.857143,1.1838 2.857143,14.28571 0,17.14286 0,34.28571 0,51.42857 0,6.66667 0,13.33334 0,20 0,1.90476 -0.602339,3.90727 0,5.71429 0.425917,1.27775 2.530478,1.55048 2.857142,2.85714 1.385918,5.54367 -0.939422,11.50632 0,17.14286 0.49512,2.97071 1.904762,5.71428 2.857143,8.57143 0.952381,2.85714 1.670779,5.80324 2.857143,8.57142 1.677772,3.91481 3.809524,7.61905 5.714286,11.42858 2.857143,5.71428 4.738169,12.03184 8.571428,17.14285 4.848733,6.46498 10.934692,11.96939 17.142858,17.14286 5.275926,4.39661 12.286648,6.57236 17.142857,11.42857 6.709584,6.70959 5.382711,14.88535 8.571428,22.85714 0.500215,1.25054 2.110034,1.73648 2.857143,2.85715 2.362567,3.54385 3.158783,8.02123 5.714283,11.42857 1.61625,2.15499 3.9898,3.6449 5.71429,5.71428 0.18534,0.22242 17.06823,22.78252 17.14286,22.85715 5.25969,5.25969 11.88316,9.02602 17.14285,14.28571 5.2597,5.2597 8.6074,12.33813 14.28572,17.14286 6.85883,5.80362 16.06747,8.40133 22.85714,14.28571 7.65056,6.63049 12.31333,16.26857 20,22.85715 7.07941,6.06806 35.67152,18.6303 42.85714,22.85714 108.09949,63.58794 -57.38469,-27.26378 54.28572,28.57143 8.0362,4.0181 14.91653,10.08186 22.85714,14.28571 18.32403,9.70096 38.81883,16.01333 57.14286,25.71429 6.0696,3.21332 10.90725,8.5506 17.14285,11.42857 49.20404,14.0583 8.55826,-2.87032 22.85715,11.42857 0.67343,0.67344 1.90476,0 2.85714,0 0.95238,0 1.90476,0 2.85714,0 2.85715,0 5.71429,0 8.57143,0 9.52381,0 19.04762,0 28.57143,0 4.7619,0 9.60062,0.85184 14.28571,0 5.92623,-1.0775 11.20143,-4.72405 17.14286,-5.71429 21.17087,-3.52847 12.24337,4.1193 31.42857,-2.85714 6.00412,-2.18331 11.30473,-5.9767 17.14286,-8.57143 2.75212,-1.22316 5.87769,-1.51027 8.57143,-2.85714 3.07133,-1.53567 5.50009,-4.17862 8.57143,-5.71429 5.38748,-2.69374 11.97784,-2.61527 17.14285,-5.71428 2.30987,-1.38592 3.5593,-4.09804 5.71429,-5.71429 1.70367,-1.27775 3.88818,-1.76148 5.71429,-2.85714 2.9445,-1.76671 5.71428,-3.80952 8.57142,-5.71429 2.85715,-1.90476 5.93347,-3.51598 8.57143,-5.71428 9.14641,-7.622 11.68745,-13.35708 20,-22.85714 6.20844,-7.09536 13.33334,-13.33334 20,-20 3.80953,-3.80953 8.29717,-7.0446 11.42857,-11.42858 1.75052,-2.45071 1.67078,-5.80324 2.85715,-8.57142 1.67777,-3.91481 3.80952,-7.61905 5.71428,-11.42858 0.95238,-1.90476 2.18371,-3.69398 2.85715,-5.71428 0.9163,-2.74893 -0.74741,-8.43894 0,-11.42857 0.73044,-2.92177 2.36202,-5.60072 2.85714,-8.57143 0.46971,-2.81827 0,-5.71429 0,-8.57143 0,-5.71429 0,-11.42857 0,-17.14286 0,-2.85714 -0.46971,-5.75316 0,-8.57143 -0.99234,-5.81325 4.70846,-9.25658 5.71428,-14.28571 0.56034,-2.80166 -0.56033,-5.76977 0,-8.57143 0.41765,-2.08823 2.34065,-3.64828 2.85715,-5.71428 0.46197,-1.84789 0,-3.80953 0,-5.71429 0.95238,-1.90476 2.1837,-3.69398 2.85714,-5.71429 0.60234,-1.80701 -0.85184,-4.01061 0,-5.71428 0.60234,-1.20468 2.2548,-1.65247 2.85714,-2.85714 0.63573,-1.27145 -0.44795,-14.90311 0,-17.14286 0.59064,-2.95321 2.1267,-5.64966 2.85715,-8.57143 1.1778,-4.71121 1.67933,-9.5745 2.85714,-14.28571 1.6816,-6.72643 3.22533,-13.52871 5.71428,-20 3.70495,-9.63287 12.47897,-20.58808 14.28572,-31.42858 0.78285,-4.69711 0,-9.5238 0,-14.28571 0,-0.95238 -0.23099,-1.9332 0,-2.85714 0.73044,-2.92177 2.2665,-5.61822 2.85714,-8.57143 0.37356,-1.86777 0,-3.80952 0,-5.71429 0,-4.7619 -0.67343,-9.57167 0,-14.28571 0.55533,-3.8873 2.30182,-7.54127 2.85714,-11.42857 0.40407,-2.82843 -0.56033,-5.76977 0,-8.57143 0.41765,-2.08823 2.50704,-3.61367 2.85715,-5.71429 2.22222,-13.33333 -1.66667,-8.33333 0,-20 7.73807,-30.95227 -0.98169,7.85354 2.85714,-22.85714 0.48706,-3.89644 2.37009,-7.53213 2.85714,-11.42857 0.8269,-6.61519 -0.8269,-13.38482 0,-20 4.22797,-33.82377 0.21569,3.53082 8.57143,-25.71429 0.78492,-2.74721 -0.40406,-5.743 0,-8.57143 0.55533,-3.8873 2.37009,-7.53212 2.85714,-11.42857 0.47252,-3.7801 0,-7.61904 0,-11.42857 0,-7.61905 0,-15.23809 0,-22.85714 0,-2.85714 -0.56033,-5.76977 0,-8.57143 0.41765,-2.08823 2.4395,-3.62605 2.85715,-5.71429 0.56033,-2.80165 0,-5.71428 0,-8.57142 0,-7.61905 0,-15.2381 0,-22.85715 0,-2.47595 0.55169,-9.7735 0,-11.42857 -1.69897,-5.0969 -7.283,-11.17653 -11.42857,-14.28571 -1.70368,-1.27776 -3.94237,-1.67586 -5.71429,-2.85715 -1.12066,-0.7471 -1.73648,-2.11003 -2.85714,-2.85714 -1.77193,-1.18128 -4.20844,-1.35129 -5.71429,-2.85714 -1.50585,-1.50585 -1.67586,-3.94236 -2.85714,-5.71429 -0.74711,-1.12066 -1.90476,-1.90476 -2.85714,-2.85714 -0.95239,-2.85714 -1.51028,-5.87769 -2.85715,-8.57143 -0.60234,-1.20468 -2.11003,-1.73648 -2.85714,-2.85714 -1.18128,-1.77193 -1.67586,-3.94236 -2.85714,-5.71429 -0.74711,-1.12066 -2.11004,-1.73648 -2.85715,-2.85714 -1.18128,-1.77192 -1.67586,-3.94236 -2.85714,-5.71429 -0.80736,-1.21103 -7.38928,-7.98035 -8.57143,-8.57142 -2.69374,-1.34687 -5.64965,-2.1267 -8.57143,-2.85715 -0.92394,-0.23098 -2.06471,0.52829 -2.85714,0 -3.36199,-2.24132 -5.20944,-6.3301 -8.57143,-8.57143 -1.77192,-1.18128 -3.80952,-1.90476 -5.71428,-2.85714 -1.90476,-0.95238 -3.64828,-2.34064 -5.71429,-2.85714 -1.84789,-0.46197 -3.90727,0.60234 -5.71428,0 -1.27776,-0.42592 -1.90477,-1.90476 -2.85715,-2.85714 -1.90476,-1.90477 -3.80952,-3.80953 -5.71428,-5.71429 -0.95238,-0.95238 -1.90476,-1.90476 -2.85715,-2.85714 -0.95238,-0.95238 -2.2548,-1.65247 -2.85714,-2.85715 -0.85183,-1.70367 0.85184,-4.01061 0,-5.71428 -0.60234,-1.20468 -1.90476,-1.90476 -2.85714,-2.85714 -0.95238,-0.95238 -1.73648,-2.11004 -2.85714,-2.85715 -1.77193,-1.18128 -3.80953,-1.90476 -5.71429,-2.85714 -1.90476,-0.95238 -3.73701,-2.06623 -5.71429,-2.85714 -5.80795,-2.32318 -9.26033,-2.36403 -14.28571,-5.71429 -1.12066,-0.74711 -1.73648,-2.11003 -2.85714,-2.85714 -20.71595,-10.35797 4.51754,3.01169 -8.57143,-5.71429 -4.43077,-2.95384 -6.9978,-2.76044 -11.42857,-5.71428 -2.24133,-1.49422 -3.47296,-4.22007 -5.71429,-5.71429 -12.47869,-8.31913 0.94177,1.2663 -11.42857,-2.85714 -2.55551,-0.85184 -3.30493,-4.50961 -5.71429,-5.71429 -0.85183,-0.42591 -2.0053,0.42592 -2.85714,0 -1.20468,-0.60234 -1.57939,-2.431222 -2.85714,-2.85714 -1.80702,-0.602338 -3.90727,0.602339 -5.71429,0 -1.27775,-0.425917 -1.65246,-2.254804 -2.85714,-2.857142 -1.70367,-0.851836 -3.90727,0.602338 -5.71429,0 -2.0203,-0.673435 -3.62605,-2.439497 -5.71428,-2.857143 -2.80166,-0.560332 -5.71429,0 -8.57143,0 -5.71429,0 -11.4787,0.755221 -17.14286,0 -8.70349,-1.160466 -16.99391,-4.688359 -25.71428,-5.714286 -7.56686,-0.890219 -15.30493,1.006962 -22.85715,0 -44.08452,-12.595578 2.25472,-1.336777 -37.14285,-5.714286 -2.99328,-0.332586 -5.71429,-1.904762 -8.57143,-2.857143 -2.85714,-0.952381 -5.77514,-1.738628 -8.57143,-2.857142 -1.97727,-0.79091 -3.73701,-2.066234 -5.71429,-2.857143 -5.59257,-2.23703 -11.55028,-3.477257 -17.14285,-5.714286 -1.97728,-0.790909 -3.64828,-2.340642 -5.71429,-2.857143 -1.84789,-0.461972 -3.86639,0.461973 -5.71428,0 -13.26444,-6.632217 1.64455,-0.242518 -11.42858,-2.857143 -15.81378,-3.162756 -1.06392,-3.347277 -20,-5.714285 -3.7801,-0.472514 -7.61904,0 -11.42857,0 -8.57143,0 -17.14285,0 -25.71428,0 -1.93673,0 -23.31723,-0.479412 -25.71429,0 -2.08823,0.417646 -3.80952,1.904761 -5.71428,2.857142 -3.80953,1.904762 -7.47403,4.132467 -11.42858,5.714286 -2.79628,1.118515 -5.87768,1.510273 -8.57142,2.857143 -3.07134,1.535668 -5.71429,3.809524 -8.57143,5.714286 -2.85715,1.904762 -5.93347,3.515983 -8.57143,5.714285 -6.20817,5.173472 -11.00714,11.883669 -17.14286,17.142858 -3.61551,3.099006 -7.84487,5.435692 -11.42857,8.571432 -8.10898,7.09536 -15.2381,15.23809 -22.85714,22.85714 -0.95238,0.95238 -1.70221,2.16418 -2.85715,2.85714 -13.00652,7.80392 -8.17694,3.84221 -20,8.57143 -9.87975,3.9519 -1.98711,1.49033 -11.42857,8.57143 -1.70367,1.27775 -4.01061,1.57939 -5.71428,2.85714 -2.15499,1.61625 -3.80953,3.80953 -5.71429,5.71429 -2.85714,2.85714 -5.71428,5.71428 -8.57143,8.57143 -10.07727,10.07727 -6.76441,4.95739 -11.42857,14.28571 -0.95238,1.90476 -2.34064,3.64828 -2.85714,5.71429 -0.46197,1.84789 0.60234,3.90727 0,5.71428 -0.85184,2.55551 -4.22007,3.47296 -5.71429,5.71429 -4.867025,7.30054 -0.33278,5.24958 -8.571426,11.42857 -8.832166,6.62412 -4.457952,-2.51267 -11.428571,11.42857 -6.964181,13.92836 1.609175,3.52221 -5.714286,20 -2.255404,5.07466 -6.316025,9.21106 -8.571428,14.28571 -1.594812,3.58833 -1.778377,7.6529 -2.857143,11.42858 -1.654752,5.79163 -4.724047,11.20142 -5.714286,17.14285 -3.305039,19.83024 5.235301,-4.27733 -2.857143,20 -1.621846,4.86554 -4.708459,9.25659 -5.714286,14.28572 -0.933886,4.66943 0.525865,9.55293 0,14.28571 -0.433638,3.90275 -2.423504,7.52582 -2.857142,11.42857 -0.525865,4.73278 0,9.52381 0,14.28572 0,3.80952 0.826401,7.70976 0,11.42857 -1.112578,5.0066 -4.70846,9.25658 -5.714286,14.28571 -0.933887,4.66944 0,9.52381 0,14.28572 0,3.80952 0,7.61905 0,11.42857 0,10.47619 0,20.95238 0,31.42857 0,4.76191 -0.525865,9.55294 0,14.28571 0.433639,3.90275 2.301814,7.54127 2.857143,11.42858 0.404061,2.82842 -0.560332,5.76977 0,8.57142 0.417646,2.08824 2.439496,3.62606 2.857143,5.71429 0.933886,4.66943 0,9.52381 0,14.28571 0,7.61905 0,15.2381 0,22.85715 0,2.39254 -0.543191,12.11295 0,14.28571 1.033002,4.13201 4.367415,7.38796 5.714285,11.42857 0.30117,0.90351 -0.301169,1.95364 0,2.85715 0.673435,2.0203 2.439496,3.62605 2.857143,5.71428 0.560332,2.80166 -0.560332,5.76977 0,8.57143 0.417647,2.08823 2.183708,3.69398 2.857143,5.71429 0.301169,0.9035 0,1.90476 0,2.85714 0,2.85714 -0.560332,5.76977 0,8.57143 0.417647,2.08823 2.183708,3.69398 2.857143,5.71428 0.301169,0.90351 0,1.90477 0,2.85715 0,2.85714 0,5.71428 0,8.57142 0,2.85715 -0.560332,5.76977 0,8.57143 0.417647,2.08824 2.340642,3.64828 2.857143,5.71429 0.461972,1.84789 0,3.80952 0,5.71428 0,0.95239 -0.425918,2.00531 0,2.85715 0.602338,1.20467 2.254804,1.65246 2.857143,2.85714 0.502185,1.00437 -0.189767,19.05117 0,20 0.417646,2.08823 2.340641,3.64828 2.857142,5.71429 0.461973,1.84789 0,3.80952 0,5.71428 0,6.66667 0,13.33334 0,20 0,12.38095 0,24.76191 0,37.14286 0,2.85714 0,5.71428 0,8.57143 0,1.90476 0.373555,3.84651 0,5.71428 -0.590641,2.95321 -2.362023,5.60072 -2.857142,8.57143 -0.469712,2.81827 0,5.71429 0,8.57143 0,8.57143 0,17.14286 0,25.71429 0,5.71428 0,11.42857 0,17.14285 0,1.90477 -0.602339,3.90727 0,5.71429 0.425917,1.27775 2.431225,1.57939 2.857142,2.85714 0.602339,1.80702 0,3.80953 0,5.71429 0,2.85714 -0.560331,5.76977 0,8.57143 0.417647,2.08823 2.439497,3.62605 2.857143,5.71428 0.560332,2.80166 -1.061116,5.91864 0,8.57143 1.327584,3.31896 15.60471,12.93984 17.142857,14.28571 4.054492,3.54769 7.221657,8.06304 11.428569,11.42858 22.51325,18.01059 11.59025,3.75332 28.57143,22.85714 4.05143,4.55786 7.11648,9.97363 11.42857,14.28571 4.31209,4.31209 9.72786,7.37714 14.28572,11.42857 4.02665,3.57925 7.61904,7.61905 11.42857,11.42858 3.80952,3.80952 7.84932,7.40191 11.42857,11.42857 4.05143,4.55786 7.11648,9.97362 11.42857,14.28571 4.31209,4.31209 9.60094,7.52459 14.28572,11.42857 1.03469,0.86225 2.2548,1.65247 2.85714,2.85715 0.42592,0.85183 -0.42592,2.0053 0,2.85714 0.60234,1.20468 2.11003,1.73648 2.85714,2.85714 1.18128,1.77193 1.67586,3.94236 2.85714,5.71429 0.74711,1.12066 2.25481,1.65246 2.85715,2.85714 1.34687,2.69374 1.18655,6.06555 2.85714,8.57143 2.24133,3.36199 5.71429,5.71428 8.57143,8.57143 2.85714,2.85714 5.53056,5.91067 8.57143,8.57143 4.58937,4.0157 9.0182,8.35585 14.28571,11.42857 48.91731,28.53505 -9.43883,-12.95922 40,19.99995 5.07402,3.3827 9.65561,7.46 14.28572,11.4286 0.9105,0.7805 9.6993,10.564 11.42857,11.4286 0.85183,0.4259 2.0053,-0.4259 2.85714,0 1.20468,0.6023 1.90476,1.9048 2.85714,2.8571 3.80953,1.9048 7.45329,4.1854 11.42857,5.7143 8.17171,3.143 59.84896,19.5703 62.85715,20 14.14213,2.0203 28.60307,-0.9503 42.85714,0 14.38022,0.9587 28.47692,4.7556 42.85714,5.7143 14.25408,0.9503 28.57143,0 42.85715,0 26.66666,0 53.33333,0 80,0 6.66666,0 13.33333,0 20,0 4.62944,0 14.03069,3.3672 17.14285,-2.8571 10,-20 -8.57143,5.7142 8.57143,-25.7143 4.94306,-9.0623 22.40084,-25.258 28.57143,-31.4286 5.71429,-5.7143 11.70684,-11.1632 17.14286,-17.14285 4.1021,-4.51232 7.11648,-9.97363 11.42857,-14.28572 11.77099,-11.77099 15.91187,-9.78726 25.71428,-22.85714 2.49526,-3.327 10.7706,-22.75341 11.42858,-25.71429 0.8264,-3.7188 -1.04656,-7.76562 0,-11.42857 0.94335,-3.30173 4.88145,-5.24009 5.71428,-8.57143 1.15493,-4.61972 0,-9.5238 0,-14.28571 0,-3.80952 0,-7.61905 0,-11.42857 0,-5.71429 0,-11.42857 0,-17.14286 0,-2.85714 0,-5.71428 0,-8.57143 0,-1.90476 -0.46197,-3.86639 0,-5.71428 0.5165,-2.06601 2.4395,-3.62605 2.85714,-5.71429 0.56034,-2.80166 -0.40406,-5.743 0,-8.57143 0.55533,-3.8873 2.42351,-7.52582 2.85715,-11.42857 0.52586,-4.73278 -0.52587,-9.55293 0,-14.28571 0.43364,-3.90275 2.4235,-7.52582 2.85714,-11.42857 0.52586,-4.73278 0,-9.52381 0,-14.28572 0.95238,-4.7619 2.2548,-9.467 2.85714,-14.28571 0.35439,-2.83508 0,-5.71429 0,-8.57143 0,-3.80952 0,-7.61905 0,-11.42857 0,-1.90476 -0.37355,-3.84652 0,-5.71429 0.59064,-2.95321 2.36203,-5.60071 2.85715,-8.57143 0.46971,-2.81827 0,-5.71428 0,-8.57143 0,-11.87674 0.62628,-15.79887 -2.85715,-28.57142 -1.34945,-4.94802 -3.16972,-9.83273 -5.71428,-14.28572 -11.87375,-20.77906 0.5365,12.63571 -11.42857,-14.28571 -2.44633,-5.50424 -3.65584,-11.48212 -5.71429,-17.14286 -1.75271,-4.81994 -3.80952,-9.52381 -5.71429,-14.28571 -1.90476,-4.76191 -3.42064,-9.69844 -5.71428,-14.28572 -2.48351,-4.96701 -5.87452,-9.43127 -8.57143,-14.28571 -2.06844,-3.72319 -3.60114,-7.73057 -5.71429,-11.42857 -1.70367,-2.98143 -4.36162,-5.41522 -5.71428,-8.57143 -1.54683,-3.60927 -1.47836,-7.75183 -2.85714,-11.42857 -1.4955,-3.988 -4.5442,-7.33327 -5.71429,-11.42858 -0.78492,-2.74721 0.78492,-5.82421 0,-8.57142 -2.34017,-8.19061 -9.36257,-14.59313 -11.42857,-22.85715 -0.92395,-3.69578 0,-7.61904 0,-11.42857 0,-4.7619 0.47383,-9.54744 0,-14.28571 -0.48321,-4.83211 -2.45386,-9.44628 -2.85714,-14.28572 -0.55364,-6.64364 0,-13.33333 0,-20 0,-6.66666 0,-13.33333 0,-20 0,-6.66666 0,-13.33333 0,-20 0,-5.71428 1.2396,-11.56464 0,-17.14285 -0.74491,-3.35209 -4.36163,-5.41522 -5.71429,-8.57143 -1.54683,-3.60927 -1.10104,-7.91637 -2.85714,-11.42857 -2.12959,-4.25918 -6.20887,-7.29408 -8.57143,-11.42858 -1.49422,-2.61488 -1.30764,-5.98892 -2.85714,-8.57142 -4.57654,-7.62757 -14.83217,-7.90008 -17.14286,-17.14286 -0.46197,-1.84789 0.46197,-3.8664 0,-5.71429 -0.5165,-2.066 -2.4395,-3.62605 -2.85714,-5.71428 -0.56034,-2.80166 0.40406,-5.743 0,-8.57143 -0.55533,-3.8873 -2.30182,-7.54127 -2.85715,-11.42857 -1.42581,-9.9807 2.99147,-13.10946 -2.85714,-22.85715 -1.76671,-2.9445 -3.65397,-5.82434 -5.71429,-8.57142 -2.82527,-3.76704 -8.93923,-7.69457 -11.42857,-11.42858 -1.18128,-1.77192 -1.67586,-3.94236 -2.85714,-5.71428 -3.11087,-4.66631 -4.23458,-1.17288 -5.71429,-8.57143 -6.48964,-32.44823 8.13881,13.42046 -5.71428,-14.28571 -0.85184,-1.70367 0.46197,-3.8664 0,-5.71429 -0.5165,-2.066 -1.90476,-3.80952 -2.85714,-5.71429 -0.95239,-1.90476 -1.67586,-3.94236 -2.85715,-5.71428 -0.74711,-1.12066 -2.11003,-1.73648 -2.85714,-2.85714 -1.18128,-1.77193 -1.67586,-3.94236 -2.85714,-5.71429 -0.74711,-1.12066 -2.43123,-1.57939 -2.85715,-2.85714 -1.20467,-3.61403 1.20468,-7.81454 0,-11.42857 -0.42591,-1.27776 -2.43122,-1.57939 -2.85714,-2.85715 -0.60234,-1.80701 0.85184,-4.01061 0,-5.71428 -3.49916,-6.99833 -6.24661,-4.68496 -11.42857,-8.57143 -6.4,-4.8 -10.74286,-12.34286 -17.14286,-17.14286 -1.70367,-1.27775 -4.20844,-1.35129 -5.71428,-2.85714 -2.42811,-2.42811 -3.56917,-5.89004 -5.71429,-8.57143 -1.68276,-2.10346 -4.03152,-3.61083 -5.71428,-5.71429 -14.16639,-17.70798 0.33055,-0.93274 -8.57143,-14.28571 -0.74711,-1.12066 -2.11004,-1.73648 -2.85715,-2.85714 -1.18128,-1.77193 -1.35129,-4.20844 -2.85714,-5.71429 -1.50585,-1.50584 -3.80952,-1.90476 -5.71428,-2.85714 -1.90477,-0.95238 -3.80953,-1.90476 -5.71429,-2.85714 -10.15176,-5.07589 -20.97266,-7.24621 -31.42857,-11.42858 -1.97727,-0.7909 -3.73701,-2.06623 -5.71429,-2.85714 -2.79628,-1.11851 -5.98892,-1.30764 -8.57143,-2.85714 -2.30986,-1.38592 -3.55929,-4.09804 -5.71428,-5.71429 -1.70367,-1.27775 -3.80953,-1.90476 -5.71429,-2.85714 -1.90476,-0.95238 -3.64828,-2.34064 -5.71428,-2.85714 -1.84789,-0.46198 -3.8664,0.46197 -5.71429,0 -2.066,-0.5165 -3.80952,-1.90476 -5.71428,-2.85715 -4.66329,-2.33164 -8.98985,-4.83164 -14.28572,-5.71428 -2.81827,-0.46971 -5.743,0.40406 -8.57143,0 -3.8873,-0.55533 -7.53212,-2.37009 -11.42857,-2.85714 -6.61518,-0.8269 -13.33333,0 -20,0 -2.85714,0 -5.75316,0.46971 -8.57143,0 -2.97071,-0.49512 -5.71428,-1.90477 -8.57143,-2.85715 -2.85714,-0.952378 -5.77514,-1.738625 -8.57142,-2.85714 -1.97728,-0.790909 -3.73702,-2.066233 -5.71429,-2.857142 -2.79629,-1.118515 -5.98892,-1.30764 -8.57143,-2.857143 -2.30986,-1.385918 -3.30493,-4.509609 -5.71428,-5.714286 -1.70368,-0.851835 -3.80953,0 -5.71429,0 -5.71429,0 -11.42857,0 -17.14286,0 -0.95238,0 -1.95363,-0.301169 -2.85714,0 -2.02031,0.673435 -3.64828,2.340642 -5.71429,2.857143 -1.84789,0.461972 -3.80952,0 -5.71428,0 -4.76191,0 -9.5886,-0.782852 -14.28572,0 -5.94143,0.990238 -11.23644,4.533002 -17.14285,5.714286 -1.86778,0.373554 -3.84652,-0.373555 -5.71429,0 -24.05622,4.811242 -0.0883,0.04413 -11.42857,5.714282 -2.69374,1.34687 -5.87769,1.51028 -8.57143,2.85715 -1.20468,0.60233 -1.73648,2.11003 -2.85714,2.85714 -1.77193,1.18128 -3.80953,1.90476 -5.71429,2.85714 -5.93465,2.96733 -8.5394,3.97438 -14.28571,8.57143 -6.46174,5.16939 -8.72911,10.47493 -14.28572,17.14286 -3.44898,4.13877 -8.19608,7.11858 -11.42857,11.42857 -1.27775,1.70367 -1.90476,3.80952 -2.85714,5.71428 -0.95238,1.90477 -2.4395,3.62606 -2.85714,5.71429 -0.56033,2.80166 0.56033,5.76977 0,8.57143 -0.41765,2.08823 -2.34064,3.64828 -2.85715,5.71428 -0.46197,1.8479 0.37356,3.84652 0,5.71429 -1.56892,7.84465 -4.92982,10.36339 -5.71428,14.28571 -0.56033,2.80166 0.40406,5.74301 0,8.57143 -0.55533,3.8873 -2.21159,7.55524 -2.85714,11.42857 -0.31315,1.87885 0.37355,3.84652 0,5.71429 -0.59065,2.95321 -2.43123,5.59001 -2.85715,8.57143 -0.53875,3.77124 0,7.61905 0,11.42857 0,0.95238 0.30117,1.95364 0,2.85714 -0.67343,2.02031 -2.34064,3.64828 -2.85714,5.71429 -0.46197,1.84789 0,3.80952 0,5.71428 0,2.85715 0,5.71429 0,8.57143 0,5.71429 0,11.42857 0,17.14286 0,19.04762 0,38.09524 0,57.14286 0,26.35992 0.92395,-3.61048 -2.85714,22.85714 -0.40406,2.82843 0,5.71429 0,8.57143 0,3.80952 0,7.61905 0,11.42857 0,8.57143 0,17.14286 0,25.71429 0,16.19047 0,32.38095 0,48.57142 0,2.85715 0,5.71429 0,8.57143 0,2.85715 -0.40406,5.743 0,8.57143 0.55533,3.8873 2.30181,7.54127 2.85714,11.42857 0.67344,4.71405 0,9.52381 0,14.28572 0,10.47619 0,20.95238 0,31.42857 0,8.57143 0,17.14286 0,25.71428 0,4.76191 0.93389,9.61629 0,14.28572 -0.41765,2.08823 -2.4395,3.62605 -2.85714,5.71428 -0.56033,2.80166 0.46971,5.75316 0,8.57143 -0.49512,2.97072 -2.36203,5.60072 -2.85715,8.57143 -0.46971,2.81827 0,5.71429 0,8.57143 0,3.80952 0,7.61905 0,11.42857 0,2.85714 -0.9035,5.86091 0,8.57143 1.08589,3.25764 4.17862,5.50009 5.71429,8.57143 12.10973,24.21947 -3.49463,6.61161 22.85714,28.57143"
       id="path3336"
       inkscape:connector-curvature="0" />
    <g
       sodipodi:type="inkscape:box3d"
       id="g3340"
       style="fill:#ff0000"
       inkscape:perspectiveID="#perspective3338"
       inkscape:corner0="2.0282915 : 1.0997721 : 0 : 1"
       inkscape:corner7="1.1702755 : 0.54022707 : 0.25 : 1">
      <path
         sodipodi:type="inkscape:box3dside"
         id="path3352"
         style="fill:#e9e9ff;fill-rule:evenodd;stroke:none;stroke-width:1px;stroke-linecap:butt;stroke-linejoin:round;stroke-opacity:1"
         inkscape:box3dsidetype="11"
         d="m 170.23223,244.21157 60.34931,-99.96151 0,231.19063 -60.34931,39.45277 z"
         points="230.58154,144.25006 230.58154,375.44069 170.23223,414.89346 170.23223,244.21157 " />
      <path
         sodipodi:type="inkscape:box3dside"
         id="path3342"
         style="fill:#353564;fill-rule:evenodd;stroke:none;stroke-width:1px;stroke-linecap:butt;stroke-linejoin:round;stroke-opacity:1"
         inkscape:box3dsidetype="6"
         d="m 122.85714,220.93363 0,184.7725 47.37509,9.18733 0,-170.68189 z"
         points="122.85714,405.70613 170.23223,414.89346 170.23223,244.21157 122.85714,220.93363 " />
      <path
         sodipodi:type="inkscape:box3dside"
         id="path3344"
         style="fill:#4d4d9f;fill-rule:evenodd;stroke:none;stroke-width:1px;stroke-linecap:butt;stroke-linejoin:round;stroke-opacity:1"
         inkscape:box3dsidetype="5"
         d="m 122.85714,220.93363 48.57144,-120.67926 59.15296,43.99569 -60.34931,99.96151 z"
         points="171.42858,100.25437 230.58154,144.25006 170.23223,244.21157 122.85714,220.93363 " />
      <path
         sodipodi:type="inkscape:box3dside"
         id="path3350"
         style="fill:#afafde;fill-rule:evenodd;stroke:none;stroke-width:1px;stroke-linecap:butt;stroke-linejoin:round;stroke-opacity:1"
         inkscape:box3dsidetype="13"
         d="m 122.85714,405.70613 48.57144,-47.62965 59.15296,17.36421 -60.34931,39.45277 z"
         points="171.42858,358.07648 230.58154,375.44069 170.23223,414.89346 122.85714,405.70613 " />
      <path
         sodipodi:type="inkscape:box3dside"
         id="path3348"
         style="fill:#d7d7ff;fill-rule:evenodd;stroke:none;stroke-width:1px;stroke-linecap:butt;stroke-linejoin:round;stroke-opacity:1"
         inkscape:box3dsidetype="14"
         d="m 171.42858,100.25437 0,257.82211 59.15296,17.36421 0,-231.19063 z"
         points="171.42858,358.07648 230.58154,375.44069 230.58154,144.25006 171.42858,100.25437 " />
      <path
         sodipodi:type="inkscape:box3dside"
         id="path3346"
         style="fill:#8686bf;fill-rule:evenodd;stroke:none;stroke-width:1px;stroke-linecap:butt;stroke-linejoin:round;stroke-opacity:1"
         inkscape:box3dsidetype="3"
         d="m 122.85714,220.93363 48.57144,-120.67926 0,257.82211 -48.57144,47.62965 z"
         points="171.42858,100.25437 171.42858,358.07648 122.85714,405.70613 122.85714,220.93363 " />
    </g>
    <g
       sodipodi:type="inkscape:box3d"
       id="g3354"
       style="fill:#ff0000"
       inkscape:perspectiveID="#perspective3338"
       inkscape:corner0="0.62770667 : 0.13277857 : 0 : 1"
       inkscape:corner7="0.35642222 : -0.33292895 : 0.25 : 1">
      <path
         sodipodi:type="inkscape:box3dside"
         id="path3364"
         style="fill:#afafde;fill-rule:evenodd;stroke:none;stroke-width:1px;stroke-linecap:butt;stroke-linejoin:round;stroke-opacity:1"
         inkscape:box3dsidetype="13"
         d="m 228.57143,838.47488 45.71428,62.45875 73.11415,-58.32099 -50.19111,-45.71691 z"
         points="274.28571,900.93363 347.39986,842.61264 297.20875,796.89573 228.57143,838.47488 " />
      <path
         sodipodi:type="inkscape:box3dside"
         id="path3356"
         style="fill:#353564;fill-rule:evenodd;stroke:none;stroke-width:1px;stroke-linecap:butt;stroke-linejoin:round;stroke-opacity:1"
         inkscape:box3dsidetype="6"
         d="m 228.57143,552.3622 0,286.11268 68.63732,-41.57915 0,-248.01931 z"
         points="228.57143,838.47488 297.20875,796.89573 297.20875,548.87642 228.57143,552.3622 " />
      <path
         sodipodi:type="inkscape:box3dside"
         id="path3366"
         style="fill:#e9e9ff;fill-rule:evenodd;stroke:none;stroke-width:1px;stroke-linecap:butt;stroke-linejoin:round;stroke-opacity:1"
         inkscape:box3dsidetype="11"
         d="m 297.20875,548.87642 50.19111,3.83267 0,289.90355 -50.19111,-45.71691 z"
         points="347.39986,552.70909 347.39986,842.61264 297.20875,796.89573 297.20875,548.87642 " />
      <path
         sodipodi:type="inkscape:box3dside"
         id="path3358"
         style="fill:#4d4d9f;fill-rule:evenodd;stroke:none;stroke-width:1px;stroke-linecap:butt;stroke-linejoin:round;stroke-opacity:1"
         inkscape:box3dsidetype="5"
         d="m 228.57143,552.3622 45.71428,5.23622 73.11415,-4.88933 -50.19111,-3.83267 z"
         points="274.28571,557.59842 347.39986,552.70909 297.20875,548.87642 228.57143,552.3622 " />
      <path
         sodipodi:type="inkscape:box3dside"
         id="path3362"
         style="fill:#d7d7ff;fill-rule:evenodd;stroke:none;stroke-width:1px;stroke-linecap:butt;stroke-linejoin:round;stroke-opacity:1"
         inkscape:box3dsidetype="14"
         d="m 274.28571,557.59842 0,343.33521 73.11415,-58.32099 0,-289.90355 z"
         points="274.28571,900.93363 347.39986,842.61264 347.39986,552.70909 274.28571,557.59842 " />
      <path
         sodipodi:type="inkscape:box3dside"
         id="path3360"
         style="fill:#8686bf;fill-rule:evenodd;stroke:none;stroke-width:1px;stroke-linecap:butt;stroke-linejoin:round;stroke-opacity:1"
         inkscape:box3dsidetype="3"
         d="m 228.57143,552.3622 45.71428,5.23622 0,343.33521 -45.71428,-62.45875 z"
         points="274.28571,557.59842 274.28571,900.93363 228.57143,838.47488 228.57143,552.3622 " />
    </g>
    <g
       sodipodi:type="inkscape:box3d"
       id="g3368"
       style="fill:#ff0000"
       inkscape:perspectiveID="#perspective3338"
       inkscape:corner0="0.033464548 : 0.42984584 : 0 : 1"
       inkscape:corner7="-0.35853925 : 0.30187978 : 0.25 : 1">
      <path
         sodipodi:type="inkscape:box3dside"
         id="path3380"
         style="fill:#e9e9ff;fill-rule:evenodd;stroke:none;stroke-width:1px;stroke-linecap:butt;stroke-linejoin:round;stroke-opacity:1"
         inkscape:box3dsidetype="11"
         d="m 434.81595,327.927 191.20248,-87.17868 0,143.54648 -191.20248,43.33581 z"
         points="626.01843,240.74832 626.01843,384.2948 434.81595,427.63061 434.81595,327.927 " />
      <path
         sodipodi:type="inkscape:box3dside"
         id="path3370"
         style="fill:#353564;fill-rule:evenodd;stroke:none;stroke-width:1px;stroke-linecap:butt;stroke-linejoin:round;stroke-opacity:1"
         inkscape:box3dsidetype="6"
         d="m 360,279.96838 0,123.8224 74.81595,23.83983 0,-99.70361 z"
         points="360,403.79078 434.81595,427.63061 434.81595,327.927 360,279.96838 " />
      <path
         sodipodi:type="inkscape:box3dside"
         id="path3372"
         style="fill:#4d4d9f;fill-rule:evenodd;stroke:none;stroke-width:1px;stroke-linecap:butt;stroke-linejoin:round;stroke-opacity:1"
         inkscape:box3dsidetype="5"
         d="M 360,279.96838 580,129.50504 626.01843,240.74832 434.81595,327.927 Z"
         points="580,129.50504 626.01843,240.74832 434.81595,327.927 360,279.96838 " />
      <path
         sodipodi:type="inkscape:box3dside"
         id="path3378"
         style="fill:#afafde;fill-rule:evenodd;stroke:none;stroke-width:1px;stroke-linecap:butt;stroke-linejoin:round;stroke-opacity:1"
         inkscape:box3dsidetype="13"
         d="m 360,403.79078 220,-74.7941 46.01843,55.29812 -191.20248,43.33581 z"
         points="580,328.99668 626.01843,384.2948 434.81595,427.63061 360,403.79078 " />
      <path
         sodipodi:type="inkscape:box3dside"
         id="path3376"
         style="fill:#d7d7ff;fill-rule:evenodd;stroke:none;stroke-width:1px;stroke-linecap:butt;stroke-linejoin:round;stroke-opacity:1"
         inkscape:box3dsidetype="14"
         d="m 580,129.50504 0,199.49164 46.01843,55.29812 0,-143.54648 z"
         points="580,328.99668 626.01843,384.2948 626.01843,240.74832 580,129.50504 " />
      <path
         sodipodi:type="inkscape:box3dside"
         id="path3374"
         style="fill:#8686bf;fill-rule:evenodd;stroke:none;stroke-width:1px;stroke-linecap:butt;stroke-linejoin:round;stroke-opacity:1"
         inkscape:box3dsidetype="3"
         d="m 360,279.96838 220,-150.46334 0,199.49164 -220,74.7941 z"
         points="580,129.50504 580,328.99668 360,403.79078 360,279.96838 " />
    </g>
    <g
       sodipodi:type="inkscape:box3d"
       id="g3382"
       style="fill:#ff0000"
       inkscape:perspectiveID="#perspective3338"
       inkscape:corner0="1.2451126 : 0.18076028 : 0 : 1"
       inkscape:corner7="-0.22026029 : -0.070031346 : 0.25 : 1">
      <path
         sodipodi:type="inkscape:box3dside"
         id="path3392"
         style="fill:#afafde;fill-rule:evenodd;stroke:none;stroke-width:1px;stroke-linecap:butt;stroke-linejoin:round;stroke-opacity:1"
         inkscape:box3dsidetype="13"
         d="M 165.71429,635.49636 477.14286,840.93364 541.95332,764.51808 223.6656,624.54343 Z"
         points="477.14286,840.93364 541.95332,764.51808 223.6656,624.54343 165.71429,635.49636 " />
      <path
         sodipodi:type="inkscape:box3dside"
         id="path3384"
         style="fill:#353564;fill-rule:evenodd;stroke:none;stroke-width:1px;stroke-linecap:butt;stroke-linejoin:round;stroke-opacity:1"
         inkscape:box3dsidetype="6"
         d="m 165.71429,523.79078 0,111.70558 57.95131,-10.95293 0,-100.51315 z"
         points="165.71429,635.49636 223.6656,624.54343 223.6656,524.03028 165.71429,523.79078 " />
      <path
         sodipodi:type="inkscape:box3dside"
         id="path3394"
         style="fill:#e9e9ff;fill-rule:evenodd;stroke:none;stroke-width:1px;stroke-linecap:butt;stroke-linejoin:round;stroke-opacity:1"
         inkscape:box3dsidetype="11"
         d="m 223.6656,524.03028 318.28772,-3.06075 0,243.54855 L 223.6656,624.54343 Z"
         points="541.95332,520.96953 541.95332,764.51808 223.6656,624.54343 223.6656,524.03028 " />
      <path
         sodipodi:type="inkscape:box3dside"
         id="path3386"
         style="fill:#4d4d9f;fill-rule:evenodd;stroke:none;stroke-width:1px;stroke-linecap:butt;stroke-linejoin:round;stroke-opacity:1"
         inkscape:box3dsidetype="5"
         d="m 165.71429,523.79078 311.42857,-4.49219 64.81046,1.67094 -318.28772,3.06075 z"
         points="477.14286,519.29859 541.95332,520.96953 223.6656,524.03028 165.71429,523.79078 " />
      <path
         sodipodi:type="inkscape:box3dside"
         id="path3390"
         style="fill:#d7d7ff;fill-rule:evenodd;stroke:none;stroke-width:1px;stroke-linecap:butt;stroke-linejoin:round;stroke-opacity:1"
         inkscape:box3dsidetype="14"
         d="m 477.14286,519.29859 0,321.63505 64.81046,-76.41556 0,-243.54855 z"
         points="477.14286,840.93364 541.95332,764.51808 541.95332,520.96953 477.14286,519.29859 " />
      <path
         sodipodi:type="inkscape:box3dside"
         id="path3388"
         style="fill:#8686bf;fill-rule:evenodd;stroke:none;stroke-width:1px;stroke-linecap:butt;stroke-linejoin:round;stroke-opacity:1"
         inkscape:box3dsidetype="3"
         d="m 165.71429,523.79078 311.42857,-4.49219 0,321.63505 -311.42857,-205.43728 z"
         points="477.14286,519.29859 477.14286,840.93364 165.71429,635.49636 165.71429,523.79078 " />
    </g>
    <ellipse
       style="fill:#ff0000"
       id="path3396"
       cx="180.06714"
       cy="918.18988"
       rx="22.857143"
       ry="47.142857" />
    <path
       sodipodi:type="star"
       style="fill:#ff0000"
       id="path3398"
       sodipodi:sides="5"
       sodipodi:cx="397.14285"
       sodipodi:cy="363.79077"
       sodipodi:r1="146.16177"
       sodipodi:r2="73.080887"
       sodipodi:arg1="1.6490675"
       sodipodi:arg2="2.277386"
       inkscape:flatsided="false"
       inkscape:rounded="0"
       inkscape:randomized="0"
       d="m 385.71428,509.50505 -36.01873,-90.13039 -94.66684,-21.42492 74.5887,-62.10767 -8.87735,-96.65418 82.11708,51.74574 89.18033,-38.31064 -23.83755,94.0883 63.99383,72.97689 -96.8495,6.40403 z"
       inkscape:transform-center-x="3.5316228"
       inkscape:transform-center-y="10.555703" />
    <path
       sodipodi:type="star"
       style="fill:#ff0000"
       id="path3400"
       sodipodi:sides="5"
       sodipodi:cx="517.14288"
       sodipodi:cy="755.21936"
       sodipodi:r1="104.78355"
       sodipodi:r2="52.391773"
       sodipodi:arg1="2.6901396"
       sodipodi:arg2="3.3184581"
       inkscape:flatsided="false"
       inkscape:rounded="0"
       inkscape:randomized="0"
       d="m 422.85717,800.93364 42.71125,-54.93234 -21.03829,-66.32649 65.44226,23.64578 56.57906,-40.50461 -2.26571,69.54624 56.00607,41.29326 -66.84255,19.33616 -21.9654,66.02525 -39.04526,-57.59584 z"
       inkscape:transform-center-x="-4.4316069"
       inkscape:transform-center-y="5.6970739" />
    <path
       sodipodi:type="star"
       style="fill:#ff0000"
       id="path3402"
       sodipodi:sides="5"
       sodipodi:cx="265.71429"
       sodipodi:cy="840.93365"
       sodipodi:r1="51.110126"
       sodipodi:r2="25.555063"
       sodipodi:arg1="-2.677945"
       sodipodi:arg2="-2.0496265"
       inkscape:flatsided="false"
       inkscape:rounded="0"
       inkscape:randomized="0"
       d="m 220.00001,818.07651 33.94001,0.17614 19.38622,-27.85911 10.32052,32.3333 32.48626,9.82845 -27.56158,19.80694 0.6914,33.93343 -27.35452,-20.09195 -32.05895,11.14357 10.65556,-32.22444 z"
       inkscape:transform-center-x="-2.3522199"
       inkscape:transform-center-y="-2.5890575" />
  </g>
</svg>
